<svg xmlns="http://www.w3.org/2000/svg" xmlns:xlink="http://www.w3.org/1999/xlink" width="593" zoomAndPan="magnify" viewBox="0 0 444.75 191.249993" height="255" preserveAspectRatio="xMidYMid meet" version="1.0"><defs><g/><clipPath id="0ededb929f"><path d="M 218.386719 88 L 238.570312 88 L 238.570312 105.757812 L 218.386719 105.757812 Z M 218.386719 88 " clip-rule="nonzero"/></clipPath><clipPath id="ffd5cce58f"><path d="M 222 84.082031 L 237 84.082031 L 237 100 L 222 100 Z M 222 84.082031 " clip-rule="nonzero"/></clipPath><clipPath id="a7c9797c1f"><path d="M 219 84.082031 L 237 84.082031 L 237 102 L 219 102 Z M 219 84.082031 " clip-rule="nonzero"/></clipPath></defs><g fill="#091864" fill-opacity="1"><g transform="translate(155.806389, 103.478812)"><g><path d="M 7.625 0.269531 C 10.773438 0.269531 13.316406 -1.625 13.316406 -4.507812 C 13.316406 -7.117188 11.386719 -8.371094 8.132812 -9.488281 C 6.300781 -10.132812 5.320312 -10.46875 5.320312 -11.453125 C 5.320312 -12.300781 6.132812 -12.503906 6.878906 -12.503906 C 7.929688 -12.503906 9.183594 -12.128906 9.929688 -11.519531 C 10.570312 -11.148438 10.945312 -10.910156 11.621094 -10.910156 C 12.402344 -10.910156 13.078125 -11.722656 13.078125 -12.605469 C 13.078125 -13.179688 12.742188 -13.824219 12.332031 -14.164062 C 10.945312 -15.449219 9.183594 -15.960938 7.285156 -15.960938 C 4.167969 -15.960938 1.660156 -14.367188 1.660156 -11.65625 C 1.660156 -8.742188 4.132812 -7.488281 6.371094 -6.742188 C 8.808594 -5.929688 9.621094 -5.488281 9.621094 -4.507812 C 9.621094 -3.726562 8.945312 -3.152344 7.757812 -3.152344 C 6.335938 -3.152344 5.355469 -3.488281 4.539062 -4.167969 C 4.03125 -4.507812 3.386719 -4.878906 2.710938 -4.878906 C 1.828125 -4.878906 1.21875 -4.132812 1.21875 -3.320312 C 1.21875 -2.949219 1.289062 -2.40625 1.828125 -1.863281 C 2.847656 -0.710938 4.914062 0.269531 7.625 0.269531 Z M 7.625 0.269531 "/></g></g></g><g fill="#091864" fill-opacity="1"><g transform="translate(170.34191, 103.478812)"><g><path d="M 16.636719 -8.605469 C 16.636719 -12.46875 13.65625 -15.960938 9.183594 -15.960938 C 4.472656 -15.960938 1.21875 -12.367188 1.21875 -7.894531 C 1.21875 -3.421875 4.472656 0.238281 9.113281 0.238281 C 11.757812 0.238281 13.519531 -0.644531 14.605469 -1.695312 C 15.382812 -2.40625 15.417969 -3.320312 15.011719 -3.929688 C 14.402344 -4.8125 13.382812 -4.640625 12.605469 -4.132812 C 11.621094 -3.386719 10.640625 -3.050781 9.351562 -3.050781 C 7.285156 -3.050781 5.523438 -4.40625 4.980469 -6.472656 L 15.042969 -6.472656 C 16.128906 -6.472656 16.636719 -7.21875 16.636719 -8.605469 Z M 4.945312 -9.25 C 5.457031 -11.316406 7.21875 -12.707031 9.316406 -12.707031 C 11.417969 -12.707031 13.28125 -11.25 13.382812 -9.25 Z M 4.945312 -9.25 "/></g></g></g><g fill="#091864" fill-opacity="1"><g transform="translate(188.197898, 103.478812)"><g><path d="M 10.0625 -15.960938 C 8.132812 -15.960938 6.234375 -15.144531 4.980469 -13.554688 L 4.980469 -13.992188 C 4.980469 -15.347656 4.234375 -15.824219 3.558594 -15.824219 C 2.8125 -15.824219 2.132812 -15.113281 2.132812 -14.164062 L 2.132812 -1.761719 C 2.132812 -0.746094 3.015625 0.0351562 4 0.0351562 C 5.015625 0.0351562 5.828125 -0.746094 5.828125 -1.761719 L 5.828125 -8.402344 C 5.828125 -10.707031 7.488281 -12.503906 9.792969 -12.503906 C 12.230469 -12.503906 13.6875 -10.605469 13.6875 -8.371094 L 13.6875 -1.761719 C 13.6875 -0.746094 14.535156 0.0351562 15.550781 0.0351562 C 16.570312 0.0351562 17.347656 -0.746094 17.347656 -1.761719 L 17.347656 -8.164062 C 17.347656 -12.503906 14.402344 -15.960938 10.0625 -15.960938 Z M 10.0625 -15.960938 "/></g></g></g><g fill="#091864" fill-opacity="1"><g transform="translate(207.510827, 103.478812)"><g><path d="M 4.03125 -17.449219 C 5.148438 -17.449219 6.066406 -18.363281 6.066406 -19.484375 C 6.066406 -20.601562 5.148438 -21.480469 4.03125 -21.480469 C 2.949219 -21.480469 2.03125 -20.601562 2.03125 -19.484375 C 2.03125 -18.363281 2.949219 -17.449219 4.03125 -17.449219 Z M 4 0 C 5.015625 0 5.828125 -0.8125 5.828125 -1.863281 L 5.828125 -13.960938 C 5.828125 -14.976562 5.046875 -15.789062 4.03125 -15.789062 C 2.980469 -15.789062 2.132812 -14.976562 2.132812 -13.960938 L 2.132812 -1.863281 C 2.132812 -0.8125 2.980469 0 4 0 Z M 4 0 "/></g></g></g><g fill="#091864" fill-opacity="1"><g transform="translate(215.465449, 103.478812)"><g/></g></g><g fill="#091864" fill-opacity="1"><g transform="translate(223.902156, 103.478812)"><g/></g></g><g fill="#091864" fill-opacity="1"><g transform="translate(232.338862, 103.478812)"><g/></g></g><g fill="#091864" fill-opacity="1"><g transform="translate(240.774995, 103.478812)"><g><path d="M 10.671875 -15.890625 C 8.199219 -15.890625 6.269531 -14.839844 4.980469 -13.046875 L 4.980469 -13.925781 C 4.980469 -15.316406 4.234375 -15.789062 3.558594 -15.789062 C 2.8125 -15.789062 2.132812 -15.042969 2.132812 -14.09375 L 2.132812 -1.695312 C 2.132812 -0.746094 2.609375 0 3.558594 0 C 3.625 0 3.726562 0 3.796875 0 L 4 0 C 5.015625 0 5.828125 -0.8125 5.828125 -1.828125 L 5.828125 -7.183594 C 5.828125 -10.0625 7.894531 -12.230469 10.671875 -12.230469 C 11.894531 -12.230469 12.535156 -13.179688 12.535156 -14.09375 C 12.535156 -14.976562 12.027344 -15.890625 10.671875 -15.890625 Z M 10.671875 -15.890625 "/></g></g></g><g fill="#091864" fill-opacity="1"><g transform="translate(253.684164, 103.478812)"><g><path d="M 4.03125 -17.449219 C 5.148438 -17.449219 6.066406 -18.363281 6.066406 -19.484375 C 6.066406 -20.601562 5.148438 -21.480469 4.03125 -21.480469 C 2.949219 -21.480469 2.03125 -20.601562 2.03125 -19.484375 C 2.03125 -18.363281 2.949219 -17.449219 4.03125 -17.449219 Z M 4 0 C 5.015625 0 5.828125 -0.8125 5.828125 -1.863281 L 5.828125 -13.960938 C 5.828125 -14.976562 5.046875 -15.789062 4.03125 -15.789062 C 2.980469 -15.789062 2.132812 -14.976562 2.132812 -13.960938 L 2.132812 -1.863281 C 2.132812 -0.8125 2.980469 0 4 0 Z M 4 0 "/></g></g></g><g fill="#091864" fill-opacity="1"><g transform="translate(261.646515, 103.478812)"><g><path d="M 7.523438 -15.789062 L 7.523438 -18.601562 C 7.523438 -19.617188 6.605469 -20.433594 5.625 -20.433594 C 4.640625 -20.433594 3.863281 -19.617188 3.863281 -18.601562 L 3.863281 -15.789062 L 2.234375 -15.789062 C 0.882812 -15.789062 0.339844 -14.875 0.339844 -14.09375 C 0.339844 -13.113281 0.882812 -12.300781 2.234375 -12.300781 L 3.863281 -12.300781 L 3.863281 -1.929688 C 3.863281 -0.644531 4.777344 0 5.691406 0 C 6.605469 0 7.523438 -0.675781 7.523438 -1.929688 L 7.523438 -12.300781 L 9.183594 -12.300781 C 10.335938 -12.300781 11.011719 -13.078125 11.011719 -14.164062 C 11.011719 -15.011719 10.335938 -15.789062 9.183594 -15.789062 Z M 7.523438 -15.789062 "/></g></g></g><g fill="#091864" fill-opacity="1"><g transform="translate(272.997094, 103.478812)"><g><path d="M 14.265625 -15.789062 C 13.28125 -15.824219 12.84375 -15.28125 12.605469 -14.636719 L 8.4375 -4.777344 L 4.304688 -14.707031 C 4.066406 -15.417969 3.320312 -15.789062 2.609375 -15.789062 C 1.21875 -15.789062 0.542969 -14.164062 0.984375 -13.179688 L 6.640625 -1.085938 C 5.660156 1.1875 4.507812 2.441406 2.40625 2.472656 C 1.21875 2.542969 0.574219 3.050781 0.574219 4.101562 C 0.574219 5.117188 1.457031 5.726562 2.472656 5.726562 C 5.457031 5.726562 7.894531 4.203125 9.757812 0.136719 L 15.890625 -13.179688 C 16.433594 -14.402344 15.621094 -15.789062 14.265625 -15.789062 Z M 14.265625 -15.789062 "/></g></g></g><g clip-path="url(#0ededb929f)"><path fill="#091864" d="M 236.839844 92.976562 C 236.839844 91.246094 236.316406 89.636719 235.421875 88.304688 C 237.359375 90.144531 238.566406 92.75 238.566406 95.640625 C 238.566406 101.222656 234.050781 105.75 228.476562 105.75 C 222.902344 105.75 218.386719 101.222656 218.386719 95.640625 C 218.386719 92.75 219.597656 90.144531 221.535156 88.300781 C 220.640625 89.636719 220.113281 91.246094 220.113281 92.976562 C 220.113281 97.605469 223.859375 101.359375 228.476562 101.359375 C 233.097656 101.359375 236.839844 97.605469 236.839844 92.976562 Z M 236.839844 92.976562 " fill-opacity="1" fill-rule="nonzero"/></g><g clip-path="url(#ffd5cce58f)"><path fill="#f8a800" d="M 227.246094 97.765625 C 228.171875 98.558594 229.269531 99.011719 230.394531 99.140625 C 228.519531 99.339844 226.574219 98.792969 225.03125 97.472656 C 222.046875 94.917969 221.695312 90.421875 224.246094 87.433594 C 226.796875 84.441406 231.28125 84.089844 234.265625 86.644531 C 235.8125 87.96875 236.652344 89.808594 236.746094 91.691406 C 236.445312 90.601562 235.824219 89.582031 234.898438 88.789062 C 232.425781 86.671875 228.707031 86.964844 226.59375 89.441406 C 224.480469 91.921875 224.773438 95.648438 227.246094 97.765625 Z M 227.246094 97.765625 " fill-opacity="1" fill-rule="nonzero"/></g><g clip-path="url(#a7c9797c1f)"><path fill="#59ffc9" d="M 234.277344 97.664062 C 235.445312 96.78125 236.265625 95.605469 236.707031 94.316406 C 236.453125 96.570312 235.3125 98.71875 233.363281 100.195312 C 229.59375 103.046875 224.230469 102.296875 221.382812 98.519531 C 218.539062 94.742188 219.285156 89.371094 223.054688 86.519531 C 225.007812 85.042969 227.382812 84.53125 229.617188 84.90625 C 228.257812 84.976562 226.902344 85.445312 225.734375 86.328125 C 222.613281 88.691406 221.992188 93.148438 224.351562 96.277344 C 226.710938 99.40625 231.152344 100.027344 234.277344 97.664062 Z M 234.277344 97.664062 " fill-opacity="1" fill-rule="nonzero"/></g><g fill="#091864" fill-opacity="1"><g transform="translate(285.289756, 108.767479)"><g><path d="M 8.691406 -1.726562 L 5.5 -9.097656 L 4.671875 -9.011719 C 4.671875 -8.734375 4.613281 -8.445312 4.382812 -7.910156 L 1.582031 -1.363281 C 1.277344 -0.683594 0.972656 -0.433594 0.289062 -0.304688 L 0.289062 0 L 3.046875 0 L 3.046875 -0.304688 C 2.207031 -0.40625 1.855469 -0.710938 2.117188 -1.347656 L 2.570312 -2.394531 L 2.480469 -2.191406 C 2.671875 -2.625 2.945312 -2.742188 3.367188 -2.742188 L 6.179688 -2.742188 C 6.574219 -2.742188 6.820312 -2.640625 7.007812 -2.292969 L 7.445312 -1.277344 C 7.675781 -0.710938 7.707031 -0.449219 6.789062 -0.304688 L 6.789062 0 L 10.054688 0 L 10.054688 -0.304688 C 9.316406 -0.40625 9.128906 -0.695312 8.691406 -1.726562 Z M 6.238281 -3.191406 L 3.28125 -3.191406 C 3.105469 -3.191406 2.988281 -3.28125 3.019531 -3.4375 L 4.613281 -7.183594 C 4.714844 -7.445312 4.789062 -7.445312 4.90625 -7.199219 L 6.703125 -3.003906 L 6.457031 -3.570312 C 6.558594 -3.324219 6.429688 -3.191406 6.238281 -3.191406 Z M 3.046875 -3.554688 L 3.03125 -3.539062 C 3.046875 -3.539062 3.046875 -3.554688 3.046875 -3.554688 Z M 3.046875 -3.554688 "/></g></g></g><g fill="#091864" fill-opacity="1"><g transform="translate(295.635207, 108.767479)"><g><path d="M 0.433594 0 L 3.511719 0 L 3.511719 -0.304688 C 2.929688 -0.40625 2.625 -0.507812 2.625 -1.042969 L 2.625 -7.964844 C 2.625 -8.503906 2.929688 -8.605469 3.511719 -8.722656 L 3.511719 -9.011719 L 0.433594 -9.011719 L 0.433594 -8.722656 C 1.015625 -8.605469 1.304688 -8.503906 1.304688 -7.964844 L 1.304688 -1.042969 C 1.304688 -0.507812 1.015625 -0.40625 0.433594 -0.304688 Z M 0.433594 0 "/></g></g></g></svg>